<?xml version="1.0" encoding="utf-8"?>
<svg xmlns="http://www.w3.org/2000/svg" xmlns:cc="http://creativecommons.org/ns#" xmlns:dc="http://purl.org/dc/elements/1.1/" xmlns:rdf="http://www.w3.org/1999/02/22-rdf-syntax-ns#" xmlns:svg="http://www.w3.org/2000/svg" height="10" id="svg4" version="1.1" width="10" viewBox="0 0 10 10">
	<metadata id="metadata10">
		<rdf:RDF>
			<cc:Work rdf:about="">
				<dc:format>image/svg+xml</dc:format>
				<dc:type rdf:resource="http://purl.org/dc/dcmitype/StillImage"/>
				<dc:title/>
			</cc:Work>
		</rdf:RDF>
	</metadata>
	<defs id="defs8"/>
	<path d="M 1.875 0 C 0.84 0 0 0.84 0 1.875 L 0 8.125 C 0 9.16 0.84 10 1.875 10 L 8.125 10 C 9.16 10 10 9.16 10 8.125 L 10 1.875 C 10 0.84 9.16 0 8.125 0 L 1.875 0 z M 3.2011719 2 L 4.1660156 2 L 4.1660156 5.4433594 L 5.5039062 3.8613281 L 6.6601562 3.8613281 L 5.1308594 5.6523438 L 6.7988281 8 L 5.6425781 8 L 4.1816406 5.9121094 L 4.1660156 5.9121094 L 4.1660156 8 L 3.2011719 8 L 3.2011719 2 z" id="path2" style="fill:#222222;fill-opacity:1"/>
</svg>
